<svg xmlns="http://www.w3.org/2000/svg" xmlns:xlink="http://www.w3.org/1999/xlink" version="1.1" width="256" height="256" viewBox="0 0 256 256" xml:space="preserve">
<g style="stroke: none; stroke-width: 0; stroke-dasharray: none; stroke-linecap: butt; stroke-linejoin: miter; stroke-miterlimit: 10; fill: rgb(76,175,80); fill-rule: nonzero; opacity: 1;" transform="translate(0 -2.842170943040401e-14) scale(2.81 2.81)">
	<path d="M 45 90 C 20.187 90 0 69.814 0 45 C 0 20.187 20.187 0 45 0 c 24.814 0 45 20.187 45 45 C 90 69.814 69.814 90 45 90 z M 45 5.625 C 23.289 5.625 5.625 23.289 5.625 45 c 0 21.712 17.664 39.375 39.375 39.375 c 21.712 0 39.375 -17.663 39.375 -39.375 C 84.375 23.289 66.712 5.625 45 5.625 z" style="stroke: none; stroke-width: 1; stroke-dasharray: none; stroke-linecap: butt; stroke-linejoin: miter; stroke-miterlimit: 10; fill: rgb(76,175,80); fill-rule: nonzero; opacity: 1;" transform=" matrix(1 0 0 1 0 0) " stroke-linecap="round"/>
</g>
<g style="stroke: none; stroke-width: 0; stroke-dasharray: none; stroke-linecap: butt; stroke-linejoin: miter; stroke-miterlimit: 10; fill: none; fill-rule: nonzero; opacity: 1;" transform="translate(32.807305370685654 32.807305370685626) scale(2.12 2.12)">
	<path d="M 78.34 41.39 c -0.551 0.037 -0.968 0.513 -0.932 1.064 c 0.057 0.842 0.085 1.699 0.085 2.546 c 0 20.814 -16.933 37.746 -37.747 37.746 C 18.933 82.746 2 65.814 2 45 S 18.933 7.253 39.747 7.253 c 11.308 0 21.927 5.008 29.131 13.741 c 0.352 0.425 0.98 0.488 1.408 0.135 c 0.426 -0.352 0.486 -0.982 0.135 -1.408 C 62.834 10.526 51.654 5.253 39.747 5.253 C 17.83 5.253 0 23.083 0 45 c 0 21.916 17.83 39.747 39.747 39.747 S 79.494 66.916 79.494 45 c 0 -0.892 -0.03 -1.793 -0.089 -2.679 C 79.368 41.769 78.885 41.344 78.34 41.39 z" style="stroke: none; stroke-width: 1; stroke-dasharray: none; stroke-linecap: butt; stroke-linejoin: miter; stroke-miterlimit: 10; fill: rgb(76,175,80); fill-rule: nonzero; opacity: 1;" transform=" matrix(1 0 0 1 0 0) " stroke-linecap="round"/>
	<path d="M 34.846 30.91 c 0 -6.089 -4.954 -11.043 -11.043 -11.043 S 12.76 24.821 12.76 30.91 s 4.954 11.043 11.043 11.043 S 34.846 36.999 34.846 30.91 z M 23.803 39.953 c -4.986 0 -9.043 -4.057 -9.043 -9.043 c 0 -4.986 4.057 -9.043 9.043 -9.043 s 9.043 4.057 9.043 9.043 C 32.846 35.896 28.789 39.953 23.803 39.953 z" style="stroke: none; stroke-width: 1; stroke-dasharray: none; stroke-linecap: butt; stroke-linejoin: miter; stroke-miterlimit: 10; fill: rgb(76,175,80); fill-rule: nonzero; opacity: 1;" transform=" matrix(1 0 0 1 0 0) " stroke-linecap="round"/>
	<path d="M 27.318 26.793 l -5.456 5.984 l -1.506 -2.053 c -0.327 -0.445 -0.951 -0.542 -1.397 -0.215 c -0.445 0.326 -0.542 0.952 -0.215 1.397 l 2.228 3.038 c 0.177 0.242 0.454 0.391 0.753 0.407 c 0.018 0.001 0.036 0.001 0.053 0.001 c 0.28 0 0.549 -0.118 0.739 -0.326 l 6.279 -6.887 c 0.372 -0.408 0.343 -1.041 -0.065 -1.413 C 28.322 26.356 27.689 26.386 27.318 26.793 z" style="stroke: none; stroke-width: 1; stroke-dasharray: none; stroke-linecap: butt; stroke-linejoin: miter; stroke-miterlimit: 10; fill: rgb(76,175,80); fill-rule: nonzero; opacity: 1;" transform=" matrix(1 0 0 1 0 0) " stroke-linecap="round"/>
	<path d="M 59.927 26.507 c 0 -0.552 -0.447 -1 -1 -1 H 38.838 c -0.552 0 -1 0.448 -1 1 c 0 0.552 0.448 1 1 1 h 20.089 C 59.48 27.507 59.927 27.059 59.927 26.507 z" style="stroke: none; stroke-width: 1; stroke-dasharray: none; stroke-linecap: butt; stroke-linejoin: miter; stroke-miterlimit: 10; fill: rgb(76,175,80); fill-rule: nonzero; opacity: 1;" transform=" matrix(1 0 0 1 0 0) " stroke-linecap="round"/>
	<path d="M 38.838 34.313 c -0.552 0 -1 0.448 -1 1 c 0 0.552 0.448 1 1 1 h 5.641 c 0.552 0 1 -0.448 1 -1 c 0 -0.552 -0.448 -1 -1 -1 H 38.838 z" style="stroke: none; stroke-width: 1; stroke-dasharray: none; stroke-linecap: butt; stroke-linejoin: miter; stroke-miterlimit: 10; fill: rgb(76,175,80); fill-rule: nonzero; opacity: 1;" transform=" matrix(1 0 0 1 0 0) " stroke-linecap="round"/>
	<path d="M 23.803 50.047 c 0.947 0 1.88 0.146 2.773 0.434 c 0.527 0.167 1.089 -0.12 1.258 -0.646 c 0.169 -0.526 -0.12 -1.089 -0.645 -1.259 c -1.092 -0.352 -2.231 -0.529 -3.387 -0.529 c -6.089 0 -11.043 4.954 -11.043 11.043 s 4.954 11.043 11.043 11.043 c 4.669 0 8.854 -2.956 10.412 -7.356 c 0.184 -0.521 -0.088 -1.092 -0.609 -1.276 c -0.52 -0.184 -1.092 0.088 -1.277 0.608 c -1.276 3.603 -4.702 6.023 -8.526 6.023 c -4.986 0 -9.043 -4.057 -9.043 -9.043 S 18.817 50.047 23.803 50.047 z" style="stroke: none; stroke-width: 1; stroke-dasharray: none; stroke-linecap: butt; stroke-linejoin: miter; stroke-miterlimit: 10; fill: rgb(76,175,80); fill-rule: nonzero; opacity: 1;" transform=" matrix(1 0 0 1 0 0) " stroke-linecap="round"/>
	<path d="M 63.972 55.687 c 0.553 0 1 -0.447 1 -1 c 0 -0.553 -0.447 -1 -1 -1 H 54.69 c -0.553 0 -1 0.447 -1 1 c 0 0.553 0.447 1 1 1 H 63.972 z" style="stroke: none; stroke-width: 1; stroke-dasharray: none; stroke-linecap: butt; stroke-linejoin: miter; stroke-miterlimit: 10; fill: rgb(76,175,80); fill-rule: nonzero; opacity: 1;" transform=" matrix(1 0 0 1 0 0) " stroke-linecap="round"/>
	<path d="M 37.838 63.492 c 0 0.553 0.448 1 1 1 h 25.134 c 0.553 0 1 -0.447 1 -1 s -0.447 -1 -1 -1 H 38.838 C 38.286 62.492 37.838 62.94 37.838 63.492 z" style="stroke: none; stroke-width: 1; stroke-dasharray: none; stroke-linecap: butt; stroke-linejoin: miter; stroke-miterlimit: 10; fill: rgb(76,175,80); fill-rule: nonzero; opacity: 1;" transform=" matrix(1 0 0 1 0 0) " stroke-linecap="round"/>
	<path d="M 89.509 25.854 l -3.082 -5.413 c -0.495 -0.871 -1.299 -1.496 -2.265 -1.761 c -0.965 -0.265 -1.976 -0.138 -2.847 0.357 l -6.079 3.46 c 0 0 0 0 -0.001 0.001 l -42.96 24.456 c -0.013 0.008 -0.021 0.022 -0.034 0.03 c -0.095 0.059 -0.183 0.129 -0.254 0.22 c -0.002 0.003 -0.005 0.005 -0.008 0.008 c 0 0.001 -0.001 0.001 -0.001 0.001 l -9.26 12.017 c -0.246 0.319 -0.276 0.755 -0.077 1.105 c 0.179 0.314 0.513 0.505 0.869 0.505 c 0.04 0 0.081 -0.002 0.121 -0.007 l 15.061 -1.827 c 0.024 -0.003 0.045 -0.013 0.069 -0.017 c 0.038 -0.007 0.075 -0.016 0.112 -0.028 c 0.045 -0.015 0.088 -0.033 0.131 -0.053 c 0.021 -0.01 0.042 -0.014 0.062 -0.025 l 49.041 -27.916 C 89.903 29.943 90.532 27.65 89.509 25.854 z M 83.633 20.609 c 0.45 0.124 0.825 0.415 1.056 0.821 l 3.082 5.414 c 0.477 0.837 0.184 1.907 -0.654 2.384 l -5.21 2.966 l -4.811 -8.452 l 5.21 -2.966 C 82.71 20.544 83.182 20.484 83.633 20.609 z M 38.947 56.649 l -4.812 -8.452 l 41.223 -23.466 l 4.811 8.452 L 38.947 56.649 z M 32.645 49.624 l 4.314 7.577 L 25.76 58.56 L 32.645 49.624 z" style="stroke: none; stroke-width: 1; stroke-dasharray: none; stroke-linecap: butt; stroke-linejoin: miter; stroke-miterlimit: 10; fill: rgb(76,175,80); fill-rule: nonzero; opacity: 1;" transform=" matrix(1 0 0 1 0 0) " stroke-linecap="round"/>
	<path d="M 74.385 30.88 c -0.273 -0.48 -0.885 -0.647 -1.364 -0.375 l -32.973 18.77 c -0.48 0.273 -0.647 0.884 -0.375 1.364 c 0.185 0.323 0.522 0.505 0.87 0.505 c 0.167 0 0.337 -0.042 0.494 -0.131 l 32.973 -18.77 C 74.491 31.97 74.659 31.36 74.385 30.88 z" style="stroke: none; stroke-width: 1; stroke-dasharray: none; stroke-linecap: butt; stroke-linejoin: miter; stroke-miterlimit: 10; fill: rgb(76,175,80); fill-rule: nonzero; opacity: 1;" transform=" matrix(1 0 0 1 0 0) " stroke-linecap="round"/>
</g>
</svg>